<svg width="100" height="100" viewBox="0 0 100 100" fill="none" xmlns="http://www.w3.org/2000/svg">
<g clip-path="url(#clip0_233_10)">
<path d="M45 47.5C40.865 47.5 37.5 50.865 37.5 55C37.5 59.135 40.865 62.5 45 62.5C49.135 62.5 52.5 59.135 52.5 55C52.5 50.865 49.135 47.5 45 47.5ZM45 57.5C43.6199 57.5 42.5 56.3801 42.5 55C42.5 53.6184 43.6199 52.5 45 52.5C46.3801 52.5 47.5 53.6184 47.5 55C47.5 56.3801 46.3801 57.5 45 57.5Z" fill="black"/>
<path d="M32.5 50H27.5V60H32.5V50Z" fill="black"/>
<path d="M50 37.5H40V42.5H50V37.5Z" fill="black"/>
<path d="M62.5 50H57.5V60H62.5V50Z" fill="black"/>
<path d="M50 67.5H40V72.5H50V67.5Z" fill="black"/>
<path d="M45 0C43.3551 0 41.6482 0.0849609 39.7801 0.261719C38.1584 0.415039 36.7117 1.34844 35.9051 2.76348C34.2367 5.69023 32.9783 8.81016 32.0084 12.0084C13.5268 17.6066 0 34.715 0 55C0 79.8133 20.1867 100 45 100C65.2867 100 82.4033 86.4732 87.9967 67.99C91.1934 67.0184 94.31 65.7617 97.235 64.0951C98.65 63.2885 99.5832 61.8434 99.7367 60.2201C99.915 58.3518 100 56.6451 100 55.0002C100 24.6732 75.3268 0 45 0ZM45 95C22.9084 95 5 77.0916 5 55C5 37.9617 15.6684 23.4467 30.6783 17.685C30.2766 20.1033 30 22.54 30 25C30 27.26 30.2268 29.4617 30.5518 31.6334C22.7283 36.4816 17.5 45.1199 17.5 55C17.5 70.1883 29.8117 82.5 45 82.5C54.89 82.5 63.535 77.2617 68.3801 69.4268C70.5449 69.7617 72.7416 70 75 70C77.4518 70 79.8801 69.725 82.29 69.3268C76.5268 84.3301 62.0334 95 45 95ZM45 32.5C57.4066 32.5 67.5 42.5934 67.5 55C67.5 67.4066 57.4066 77.5 45 77.5C32.5934 77.5 22.5 67.4066 22.5 55C22.5 42.5934 32.5934 32.5 45 32.5ZM94.76 59.75C88.9268 63.075 82.1934 65 75 65C73.5416 65 72.1117 64.8883 70.6967 64.7268C71.8434 61.7 72.5 58.4301 72.5 55.0002C72.5 39.8119 60.1883 27.5002 45 27.5002C41.5768 27.5002 38.3133 28.1535 35.29 29.2969C35.1234 27.8852 35 26.4586 35 25.0002C35 17.8068 36.925 11.0734 40.25 5.24023C41.815 5.09199 43.3967 5.0002 45 5.0002C72.6133 5.0002 95 27.3852 95 55.0002C95 56.6033 94.9084 58.185 94.76 59.75Z" fill="black"/>
<path d="M14.5732 65.6533C15.954 65.6533 17.0732 64.534 17.0732 63.1533C17.0732 61.7726 15.954 60.6533 14.5732 60.6533C13.1925 60.6533 12.0732 61.7726 12.0732 63.1533C12.0732 64.534 13.1925 65.6533 14.5732 65.6533Z" fill="black"/>
<path d="M9.13672 60.6383C10.5174 60.6383 11.6367 59.519 11.6367 58.1383C11.6367 56.7576 10.5174 55.6383 9.13672 55.6383C7.75601 55.6383 6.63672 56.7576 6.63672 58.1383C6.63672 59.519 7.75601 60.6383 9.13672 60.6383Z" fill="black"/>
<path d="M12.3733 72.7166C13.754 72.7166 14.8733 71.5973 14.8733 70.2166C14.8733 68.8359 13.754 67.7166 12.3733 67.7166C10.9926 67.7166 9.87329 68.8359 9.87329 70.2166C9.87329 71.5973 10.9926 72.7166 12.3733 72.7166Z" fill="black"/>
<path d="M19.5449 82.95C20.9256 82.95 22.0449 81.8307 22.0449 80.45C22.0449 79.0693 20.9256 77.95 19.5449 77.95C18.1642 77.95 17.0449 79.0693 17.0449 80.45C17.0449 81.8307 18.1642 82.95 19.5449 82.95Z" fill="black"/>
<path d="M29.7849 90.1268C31.1656 90.1268 32.2849 89.0075 32.2849 87.6268C32.2849 86.2461 31.1656 85.1268 29.7849 85.1268C28.4042 85.1268 27.2849 86.2461 27.2849 87.6268C27.2849 89.0075 28.4042 90.1268 29.7849 90.1268Z" fill="black"/>
<path d="M54.3167 92.2733C55.6974 92.2733 56.8167 91.154 56.8167 89.7733C56.8167 88.3925 55.6974 87.2733 54.3167 87.2733C52.9359 87.2733 51.8167 88.3925 51.8167 89.7733C51.8167 91.154 52.9359 92.2733 54.3167 92.2733Z" fill="black"/>
<path d="M65.6499 86.9901C67.0306 86.9901 68.1499 85.8708 68.1499 84.49C68.1499 83.1093 67.0306 81.9901 65.6499 81.9901C64.2692 81.9901 63.1499 83.1093 63.1499 84.49C63.1499 85.8708 64.2692 86.9901 65.6499 86.9901Z" fill="black"/>
<path d="M24.3518 28.0099C25.7325 28.0099 26.8518 26.8907 26.8518 25.5099C26.8518 24.1292 25.7325 23.0099 24.3518 23.0099C22.9711 23.0099 21.8518 24.1292 21.8518 25.5099C21.8518 26.8907 22.9711 28.0099 24.3518 28.0099Z" fill="black"/>
<path d="M74.49 78.15C75.8707 78.15 76.99 77.0307 76.99 75.65C76.99 74.2693 75.8707 73.15 74.49 73.15C73.1093 73.15 71.99 74.2693 71.99 75.65C71.99 77.0307 73.1093 78.15 74.49 78.15Z" fill="black"/>
<path d="M15.51 36.8517C16.8907 36.8517 18.01 35.7325 18.01 34.3517C18.01 32.971 16.8907 31.8517 15.51 31.8517C14.1293 31.8517 13.01 32.971 13.01 34.3517C13.01 35.7325 14.1293 36.8517 15.51 36.8517Z" fill="black"/>
<path d="M10.2268 48.1816C11.6075 48.1816 12.7268 47.0624 12.7268 45.6816C12.7268 44.3009 11.6075 43.1816 10.2268 43.1816C8.84609 43.1816 7.72681 44.3009 7.72681 45.6816C7.72681 47.0624 8.84609 48.1816 10.2268 48.1816Z" fill="black"/>
<path d="M41.8667 93.3666C43.2474 93.3666 44.3667 92.2473 44.3667 90.8666C44.3667 89.4859 43.2474 88.3666 41.8667 88.3666C40.486 88.3666 39.3667 89.4859 39.3667 90.8666C39.3667 92.2473 40.486 93.3666 41.8667 93.3666Z" fill="black"/>
<path d="M19.1968 75.5666C20.5775 75.5666 21.6968 74.4473 21.6968 73.0666C21.6968 71.6859 20.5775 70.5666 19.1968 70.5666C17.8161 70.5666 16.6968 71.6859 16.6968 73.0666C16.6968 74.4473 17.8161 75.5666 19.1968 75.5666Z" fill="black"/>
<path d="M26.9334 83.3C28.3141 83.3 29.4334 82.1807 29.4334 80.8C29.4334 79.4193 28.3141 78.3 26.9334 78.3C25.5526 78.3 24.4333 79.4193 24.4333 80.8C24.4333 82.1807 25.5526 83.3 26.9334 83.3Z" fill="black"/>
<path d="M36.8501 87.9334C38.2308 87.9334 39.3501 86.8141 39.3501 85.4334C39.3501 84.0527 38.2308 82.9334 36.8501 82.9334C35.4694 82.9334 34.3501 84.0527 34.3501 85.4334C34.3501 86.8141 35.4694 87.9334 36.8501 87.9334Z" fill="black"/>
<path d="M47.7449 88.8801C49.1256 88.8801 50.2449 87.7608 50.2449 86.3801C50.2449 84.9994 49.1256 83.8801 47.7449 83.8801C46.3642 83.8801 45.2449 84.9994 45.2449 86.3801C45.2449 87.7608 46.3642 88.8801 47.7449 88.8801Z" fill="black"/>
<path d="M58.3132 86.05C59.6939 86.05 60.8132 84.9307 60.8132 83.55C60.8132 82.1693 59.6939 81.05 58.3132 81.05C56.9325 81.05 55.8132 82.1693 55.8132 83.55C55.8132 84.9307 56.9325 86.05 58.3132 86.05Z" fill="black"/>
<path d="M67.2666 79.7666C68.6473 79.7666 69.7666 78.6473 69.7666 77.2666C69.7666 75.8859 68.6473 74.7666 67.2666 74.7666C65.8859 74.7666 64.7666 75.8859 64.7666 77.2666C64.7666 78.6473 65.8859 79.7666 67.2666 79.7666Z" fill="black"/>
<path d="M22.7268 35.2267C24.1075 35.2267 25.2268 34.1075 25.2268 32.7267C25.2268 31.346 24.1075 30.2267 22.7268 30.2267C21.3461 30.2267 20.2268 31.346 20.2268 32.7267C20.2268 34.1075 21.3461 35.2267 22.7268 35.2267Z" fill="black"/>
<path d="M16.4517 44.1834C17.8324 44.1834 18.9517 43.0641 18.9517 41.6834C18.9517 40.3027 17.8324 39.1834 16.4517 39.1834C15.0709 39.1834 13.9517 40.3027 13.9517 41.6834C13.9517 43.0641 15.0709 44.1834 16.4517 44.1834Z" fill="black"/>
<path d="M13.6199 54.7551C15.0006 54.7551 16.1199 53.6358 16.1199 52.2551C16.1199 50.8744 15.0006 49.7551 13.6199 49.7551C12.2392 49.7551 11.1199 50.8744 11.1199 52.2551C11.1199 53.6358 12.2392 54.7551 13.6199 54.7551Z" fill="black"/>
</g>
<defs>
<clipPath id="clip0_233_10">
<rect width="100" height="100" fill="white"/>
</clipPath>
</defs>
</svg>
