<svg width="77" height="84" viewBox="0 0 77 84" fill="none" xmlns="http://www.w3.org/2000/svg">
<path d="M0 84V9.33333C0 6.76667 0.913889 4.56944 2.74167 2.74167C4.56944 0.913889 6.76667 0 9.33333 0H37.3333C39.9 0 42.0972 0.913889 43.925 2.74167C45.7528 4.56944 46.6667 6.76667 46.6667 9.33333V42H51.3333C53.9 42 56.0972 42.9139 57.925 44.7417C59.7528 46.5694 60.6667 48.7667 60.6667 51.3333V72.3333C60.6667 73.6556 61.1139 74.7639 62.0083 75.6583C62.9028 76.5528 64.0111 77 65.3333 77C66.6556 77 67.7639 76.5528 68.6583 75.6583C69.5528 74.7639 70 73.6556 70 72.3333V38.7333C69.3 39.1222 68.5611 39.375 67.7833 39.4917C67.0056 39.6083 66.1889 39.6667 65.3333 39.6667C62.0667 39.6667 59.3056 38.5389 57.05 36.2833C54.7944 34.0278 53.6667 31.2667 53.6667 28C53.6667 25.5111 54.3472 23.275 55.7083 21.2917C57.0694 19.3083 58.8778 17.8889 61.1333 17.0333L51.3333 7.23333L56.2333 2.33333L73.5 19.1333C74.6667 20.3 75.5417 21.6611 76.125 23.2167C76.7083 24.7722 77 26.3667 77 28V72.3333C77 75.6 75.8722 78.3611 73.6167 80.6167C71.3611 82.8722 68.6 84 65.3333 84C62.0667 84 59.3056 82.8722 57.05 80.6167C54.7944 78.3611 53.6667 75.6 53.6667 72.3333V49H46.6667V84H0ZM9.33333 32.6667H37.3333V9.33333H9.33333V32.6667ZM65.3333 32.6667C66.6556 32.6667 67.7639 32.2194 68.6583 31.325C69.5528 30.4306 70 29.3222 70 28C70 26.6778 69.5528 25.5694 68.6583 24.675C67.7639 23.7806 66.6556 23.3333 65.3333 23.3333C64.0111 23.3333 62.9028 23.7806 62.0083 24.675C61.1139 25.5694 60.6667 26.6778 60.6667 28C60.6667 29.3222 61.1139 30.4306 62.0083 31.325C62.9028 32.2194 64.0111 32.6667 65.3333 32.6667ZM9.33333 74.6667H37.3333V42H9.33333V74.6667Z" fill="black"/>
</svg>
