<svg width="120" height="120" viewBox="0 0 120 120" fill="none" xmlns="http://www.w3.org/2000/svg">
<g clip-path="url(#clip0_233_92)">
<path d="M104.516 63.8711H98.7096V52.2583H89.6185L78.0058 44.5162H65.8066V32.9031H81.2903V29.032H34.8386V32.9031H50.3224V44.5158H37.9935L24.4452 56.1286H13.5483V67.7413H3.87105V50.3228H0V98.7101H3.87105V83.2263H13.5487V98.7101H24.6468L38.1951 106.452H60.0004V102.581H39.2246L27.0969 95.6519V58.955L39.4258 48.3873H76.8328L87.0965 55.2291V61.9355H90.9676V56.129H94.8386V102.581H90.9676V106.452H98.7096V96.7741H104.516V100.645H120V58.0645H104.516V63.8711ZM13.5487 79.3548H3.87105V71.6127H13.5487V79.3548ZM23.2259 94.8386H17.4193V60H23.2259V94.8386ZM61.9355 44.5158H54.1934V32.9031H61.9355V44.5158ZM104.516 92.9031H98.7096V67.7417H104.516V92.9031ZM108.387 61.9355H116.129V96.7741H108.387V61.9355Z" fill="black"/>
<path d="M78.2209 71.6127H63.761L73.4386 58.0645H54.9317L43.3181 81.2904H55.4962L50.2802 99.5535L78.2209 71.6127ZM49.5832 77.4193L57.3253 61.9355H65.9148L56.2372 75.4838H68.8738L58.1048 86.2527L60.6305 77.4193H49.5832Z" fill="black"/>
<path d="M27.0966 11.6127H15.4839V15.4838H27.0966V11.6127Z" fill="black"/>
<path d="M11.6127 11.6127H0V15.4838H11.6127V11.6127Z" fill="black"/>
<path d="M15.4838 15.4838H11.6128V27.0965H15.4838V15.4838Z" fill="black"/>
<path d="M15.4838 0H11.6128V11.6127H15.4838V0Z" fill="black"/>
<path d="M112.258 29.0324V21.2903H108.387V29.0324H112.258V32.9031H108.387V29.0324H100.645V32.9035H108.387V40.6452H112.258V32.9035H120V29.0324H112.258Z" fill="black"/>
<path d="M87.0968 102.581H77.4192V106.452H87.0968V102.581Z" fill="black"/>
<path d="M73.5487 102.581H77.4193V92.9031H73.5483V102.581H63.8711V106.452H73.5483V116.129H77.4193V106.452H73.5487V102.581Z" fill="black"/>
<path d="M116.129 108.387H112.258V112.258H108.387V116.129H112.258V120H116.129V116.129H112.258V112.258H116.129V116.129H120V112.258H116.129V108.387Z" fill="black"/>
</g>
<defs>
<clipPath id="clip0_233_92">
<rect width="120" height="120" fill="white"/>
</clipPath>
</defs>
</svg>
