<svg width="48" height="60" viewBox="0 0 48 60" fill="none" xmlns="http://www.w3.org/2000/svg">
<path d="M24 30C25.65 30 27.0625 29.4125 28.2375 28.2375C29.4125 27.0625 30 25.65 30 24C30 22.35 29.4125 20.9375 28.2375 19.7625C27.0625 18.5875 25.65 18 24 18C22.35 18 20.9375 18.5875 19.7625 19.7625C18.5875 20.9375 18 22.35 18 24C18 25.65 18.5875 27.0625 19.7625 28.2375C20.9375 29.4125 22.35 30 24 30ZM24 52.05C30.1 46.45 34.625 41.3625 37.575 36.7875C40.525 32.2125 42 28.15 42 24.6C42 19.15 40.2625 14.6875 36.7875 11.2125C33.3125 7.7375 29.05 6 24 6C18.95 6 14.6875 7.7375 11.2125 11.2125C7.7375 14.6875 6 19.15 6 24.6C6 28.15 7.475 32.2125 10.425 36.7875C13.375 41.3625 17.9 46.45 24 52.05ZM24 60C15.95 53.15 9.9375 46.7875 5.9625 40.9125C1.9875 35.0375 0 29.6 0 24.6C0 17.1 2.4125 11.125 7.2375 6.675C12.0625 2.225 17.65 0 24 0C30.35 0 35.9375 2.225 40.7625 6.675C45.5875 11.125 48 17.1 48 24.6C48 29.6 46.0125 35.0375 42.0375 40.9125C38.0625 46.7875 32.05 53.15 24 60Z" fill="#E8EAED"/>
</svg>
