<svg width="98" height="48" viewBox="0 0 98 48" fill="none" xmlns="http://www.w3.org/2000/svg">
<path d="M42 31.5C40.5125 31.5 39.2656 30.9969 38.2594 29.9906C37.2531 28.9844 36.75 27.7375 36.75 26.25V5.25C36.75 3.7625 37.2531 2.51562 38.2594 1.50937C39.2656 0.503125 40.5125 0 42 0H57.75C59.2375 0 60.4844 0.503125 61.4906 1.50937C62.4969 2.51562 63 3.7625 63 5.25V26.25C63 27.7375 62.4969 28.9844 61.4906 29.9906C60.4844 30.9969 59.2375 31.5 57.75 31.5H42ZM44.625 23.625H55.125V7.875H44.625V23.625ZM5.25 31.5C3.7625 31.5 2.51562 30.9969 1.50937 29.9906C0.503125 28.9844 0 27.7375 0 26.25V5.25C0 3.7625 0.503125 2.51562 1.50937 1.50937C2.51562 0.503125 3.7625 0 5.25 0H21C22.4875 0 23.7344 0.503125 24.7406 1.50937C25.7469 2.51562 26.25 3.7625 26.25 5.25V10.5H18.375V7.875H7.875V23.625H18.375V21H26.25V26.25C26.25 27.7375 25.7469 28.9844 24.7406 29.9906C23.7344 30.9969 22.4875 31.5 21 31.5H5.25ZM73.5 47.25V34.125C73.5 32.6375 74.0031 31.3906 75.0094 30.3844C76.0156 29.3781 77.2625 28.875 78.75 28.875H89.25V23.625H73.5V15.75H91.875C93.3625 15.75 94.6094 16.2531 95.6156 17.2594C96.6219 18.2656 97.125 19.5125 97.125 21V28.875C97.125 30.3625 96.6219 31.6094 95.6156 32.6156C94.6094 33.6219 93.3625 34.125 91.875 34.125H81.375V39.375H97.125V47.25H73.5Z" fill="black"/>
</svg>
